<?xml version="1.0" standalone="no"?>
<!DOCTYPE svg PUBLIC "-//W3C//DTD SVG 20010904//EN"
 "http://www.w3.org/TR/2001/REC-SVG-20010904/DTD/svg10.dtd">
<svg version="1.0" xmlns="http://www.w3.org/2000/svg"
 width="1024.000000pt" height="1024.000000pt" viewBox="0 0 1024.000000 1024.000000"
 preserveAspectRatio="xMidYMid meet">

<g transform="translate(0.000000,1024.000000) scale(0.100000,-0.100000)"
fill="#000000" stroke="none">
<path d="M4293 8458 c-12 -26 -67 -58 -100 -58 -20 0 -60 24 -81 50 -11 13
-12 11 -7 -15 8 -38 52 -85 80 -85 15 0 50 -32 111 -102 49 -56 95 -110 101
-119 11 -15 3 -24 -68 -74 -269 -188 -464 -474 -540 -790 -25 -104 -25 -205
-1 -234 l17 -21 1355 0 1355 -1 23 26 c67 78 -29 425 -181 650 -96 143 -191
240 -354 363 -46 35 -83 66 -83 70 0 4 16 25 35 47 20 22 64 73 98 113 39 46
69 72 82 72 44 0 95 61 95 112 -1 22 -1 22 -16 -4 -17 -33 -62 -58 -102 -58
-29 0 -54 20 -65 53 -4 12 -11 15 -19 10 -7 -4 -18 -8 -25 -8 -10 0 -134 -136
-208 -228 l-30 -38 -65 27 c-189 77 -316 97 -565 92 -210 -5 -315 -23 -460
-79 -44 -17 -87 -33 -95 -35 -10 -3 -27 11 -48 40 -18 25 -76 91 -130 147 -96
100 -98 102 -109 77z m1071 -312 c96 -19 266 -76 348 -117 169 -84 333 -217
388 -314 40 -70 79 -186 87 -256 9 -85 -18 -148 -75 -178 -43 -23 -291 -61
-497 -76 -49 -4 -123 -13 -162 -21 -57 -11 -222 -14 -781 -14 l-709 0 8 53
c12 87 30 148 71 236 154 337 469 584 863 676 122 29 338 34 459 11z"/>
<path d="M4922 7474 c-15 -10 -22 -25 -22 -48 0 -32 4 -36 83 -75 143 -73 241
-72 385 0 45 23 82 46 82 51 0 5 -6 24 -14 43 -21 49 -55 55 -103 18 -67 -52
-130 -68 -205 -52 -60 13 -92 28 -127 58 -29 25 -49 26 -79 5z"/>
<path d="M3838 6879 c-72 -37 -68 11 -68 -877 0 -502 4 -819 10 -853 16 -83
63 -174 125 -238 96 -101 200 -141 362 -141 l93 0 0 -238 c0 -268 6 -300 66
-370 48 -57 145 -103 228 -109 103 -9 195 25 268 97 82 82 88 109 88 392 l0
228 154 0 155 0 3 -247 c3 -247 3 -248 30 -299 35 -67 104 -126 178 -154 163
-61 362 23 420 176 18 49 20 78 20 288 l0 233 124 5 c112 4 129 8 190 36 83
39 173 123 215 201 62 118 61 95 61 984 0 892 3 847 -63 887 -31 20 -60 20
-1327 20 -1269 -1 -1296 -1 -1332 -21z m2349 -146 c23 -10 43 -24 43 -30 0
-20 1 -26 15 -63 7 -19 16 -44 20 -55 10 -28 12 -95 3 -95 -5 0 -8 -63 -8
-139 0 -77 -3 -146 -6 -155 -4 -9 -19 -17 -38 -17 -27 -2 -28 -2 -6 -6 14 -3
28 -10 32 -17 4 -6 8 -61 8 -121 l0 -111 -32 -2 c-18 -1 -66 -7 -105 -13 -40
-6 -83 -7 -94 -4 -13 5 -19 3 -15 -3 8 -14 -205 -25 -274 -13 -55 8 -55 9 -12
10 30 1 42 5 42 16 0 10 -11 15 -35 15 -35 0 -35 0 -35 45 0 37 -3 43 -17 38
-11 -4 -14 -3 -9 6 4 6 4 11 -1 10 -32 -6 -53 3 -53 21 0 16 7 20 30 20 17 0
30 5 30 10 0 6 8 10 18 11 11 0 12 2 4 6 -10 4 -10 8 -1 19 10 12 14 11 26 -6
9 -12 26 -20 46 -21 18 -1 43 -4 57 -8 35 -10 60 -2 60 20 0 13 7 19 21 19 17
0 20 -5 17 -22 -4 -21 -1 -23 39 -22 24 1 46 4 49 7 3 3 21 3 40 0 22 -4 34
-2 34 6 0 6 9 11 20 11 14 0 20 7 20 21 0 16 -4 19 -20 14 -14 -5 -20 -2 -20
9 0 20 11 20 36 1 26 -20 84 -20 84 0 0 10 -11 15 -32 16 -31 1 -32 1 -8 9 22
7 20 8 -15 9 -27 0 -35 -2 -26 -8 9 -6 -10 -8 -52 -6 -37 2 -69 -1 -73 -6 -3
-5 -9 -7 -14 -4 -4 3 -27 -2 -50 -10 -23 -8 -55 -15 -70 -15 -18 0 -29 -6 -32
-18 -4 -15 -12 -18 -37 -14 -19 3 -30 9 -28 16 3 6 -3 12 -12 13 -33 3 -57 3
-101 2 -34 0 -40 -2 -25 -9 17 -7 18 -9 2 -9 -9 -1 -26 -7 -37 -13 -17 -11
-22 -10 -29 0 -7 11 -55 12 -146 2 -5 -1 -1 -5 10 -10 16 -7 14 -9 -15 -9 -19
-1 -46 -5 -60 -9 -19 -5 -7 -8 45 -13 51 -4 73 -2 81 8 13 16 38 17 65 3 13
-7 19 -7 19 0 0 5 9 10 21 10 13 0 20 -6 18 -17 -3 -36 2 -43 29 -44 l27 -1
-30 -7 c-26 -5 -30 -11 -33 -44 -3 -34 -6 -37 -33 -37 -26 0 -29 3 -29 30 0
31 19 43 21 13 0 -15 2 -15 8 2 11 26 5 34 -19 28 -16 -4 -20 -14 -20 -44 0
-39 0 -39 39 -39 22 0 41 -3 44 -7 2 -5 2 -2 0 6 -2 7 -1 29 3 48 6 31 9 33
40 31 32 -2 34 -4 34 -40 0 -30 -4 -38 -18 -38 -19 0 -42 -18 -42 -32 0 -4 19
-8 42 -8 23 0 39 -2 37 -5 -6 -5 -250 -33 -344 -39 -38 -2 -113 -9 -165 -15
-52 -5 -133 -12 -180 -15 -47 -3 -123 -10 -170 -16 -47 -5 -134 -15 -195 -20
-116 -11 -145 -14 -290 -31 -49 -6 -134 -13 -187 -16 l-98 -5 0 131 0 132 -34
14 c-36 15 -60 61 -26 50 23 -7 43 25 38 62 -2 21 -11 29 -38 37 -19 5 -28 11
-20 13 12 3 15 14 12 46 -2 31 -1 38 7 27 7 -10 11 -11 11 -2 0 6 7 12 15 12
8 0 15 5 15 10 0 6 -21 10 -47 9 -38 0 -44 -2 -28 -10 l20 -9 -20 3 c-19 2
-20 11 -23 157 -4 186 6 243 52 296 l34 39 173 5 c96 3 570 6 1053 8 824 2
882 1 923 -15z m108 -3 c3 -6 -1 -7 -9 -4 -18 7 -21 14 -7 14 6 0 13 -4 16
-10z m-2318 -522 c-3 -8 -6 -5 -6 6 -1 11 2 17 5 13 3 -3 4 -12 1 -19z m-20
-175 c-2 -21 -4 -4 -4 37 0 41 2 58 4 38 2 -21 2 -55 0 -75z m1703 57 c0 -5
-5 -10 -11 -10 -5 0 -7 5 -4 10 3 6 8 10 11 10 2 0 4 -4 4 -10z m7 -196 c-3
-3 -12 -4 -19 -1 -8 3 -5 6 6 6 11 1 17 -2 13 -5z"/>
<path d="M4022 6180 c0 -14 2 -19 5 -12 2 6 2 18 0 25 -3 6 -5 1 -5 -13z"/>
<path d="M5378 6093 c7 -3 16 -2 19 1 4 3 -2 6 -13 5 -11 0 -14 -3 -6 -6z"/>
<path d="M5190 6080 c31 -7 32 -7 8 -9 -16 0 -28 -5 -28 -11 0 -5 -11 -10 -25
-10 -14 0 -25 5 -25 10 0 22 -40 9 -46 -15 -9 -35 -25 -31 -18 4 6 27 4 29
-17 23 -19 -5 -20 -7 -6 -10 18 -4 24 -22 6 -22 -6 0 -8 -8 -4 -19 5 -16 2
-18 -17 -14 -13 4 -26 11 -30 16 -4 6 -13 4 -23 -6 -21 -21 -88 -22 -108 -2
-8 8 -42 17 -76 20 -57 5 -61 4 -61 -16 0 -14 -5 -19 -13 -16 -8 3 -20 1 -28
-3 -11 -7 -9 -10 6 -15 11 -4 28 -11 38 -16 11 -6 42 -9 69 -8 40 2 53 -1 65
-17 14 -18 15 -18 8 5 -6 18 -4 22 6 15 8 -5 22 -7 32 -6 11 2 17 -3 17 -17 0
-18 6 -21 40 -21 33 0 40 -3 40 -20 0 -13 -7 -20 -20 -20 -22 0 -29 -39 -7
-41 64 -4 117 -3 117 4 0 4 -9 7 -20 7 -15 0 -20 7 -20 29 0 23 5 30 25 33 30
6 35 2 35 -29 0 -20 5 -23 35 -23 21 0 35 -5 35 -12 0 -10 3 -9 9 1 5 7 10 9
12 4 2 -6 21 -8 42 -5 35 4 37 6 37 38 0 33 1 34 43 34 42 0 42 0 42 37 0 37
1 38 38 41 32 3 37 7 37 28 0 23 -3 24 -66 24 -61 0 -66 1 -61 20 5 19 1 20
-76 19 -63 -1 -74 -3 -47 -9z m-65 -138 c-9 -9 -57 -11 -77 -2 -20 9 -20 9 8
5 23 -5 33 -2 38 10 5 13 8 14 20 3 8 -7 13 -14 11 -16z"/>
<path d="M4922 6044 c10 -10 88 -13 93 -3 4 5 -16 9 -46 9 -29 0 -50 -3 -47
-6z"/>
<path d="M5832 6020 c0 -14 2 -19 5 -12 2 6 2 18 0 25 -3 6 -5 1 -5 -13z"/>
<path d="M5570 6020 c0 -5 5 -10 10 -10 6 0 10 5 10 10 0 6 -4 10 -10 10 -5 0
-10 -4 -10 -10z"/>
<path d="M4380 6000 c13 -8 12 -10 -2 -10 -10 0 -18 -7 -18 -15 0 -11 11 -15
40 -15 33 0 40 4 40 19 0 20 -19 31 -53 31 -18 0 -19 -2 -7 -10z"/>
<path d="M5868 5993 c7 -3 16 -2 19 1 4 3 -2 6 -13 5 -11 0 -14 -3 -6 -6z"/>
<path d="M5435 5960 c-3 -5 1 -10 9 -10 9 0 16 -4 16 -10 0 -5 7 -10 15 -10 8
0 15 5 15 10 0 6 -7 10 -15 10 -8 0 -15 5 -15 10 0 6 -4 10 -9 10 -6 0 -13 -4
-16 -10z"/>
<path d="M5880 5919 c0 -5 5 -7 10 -4 6 3 10 8 10 11 0 2 -4 4 -10 4 -5 0 -10
-5 -10 -11z"/>
<path d="M4327 5914 c-14 -14 -7 -34 13 -34 13 0 20 -7 20 -20 0 -14 7 -20 21
-20 17 0 20 5 17 38 -3 33 -6 37 -33 40 -17 2 -34 0 -38 -4z"/>
<path d="M5365 5880 c-4 -6 3 -10 14 -10 25 0 27 6 6 13 -8 4 -17 2 -20 -3z"/>
<path d="M3320 6751 c-93 -20 -185 -101 -214 -188 -15 -44 -16 -105 -14 -539
l3 -489 25 -49 c49 -97 158 -166 260 -166 101 0 216 68 260 156 l25 49 3 504
3 503 -24 52 c-32 69 -66 107 -124 138 -52 29 -144 42 -203 29z m120 -166 c30
-16 60 -51 60 -72 0 -9 -7 -8 -27 3 -44 22 -110 18 -137 -9 -22 -22 -23 -32
-29 -232 -4 -115 -11 -213 -16 -218 -5 -5 -16 -5 -26 1 -12 6 -14 11 -6 16 6
4 11 17 10 29 -1 20 -2 20 -9 -3 -7 -22 -8 -22 -9 -4 -1 11 2 24 7 28 4 4 5
90 4 191 -4 204 2 229 61 265 38 24 78 25 117 5z"/>
<path d="M6865 6747 c-65 -22 -99 -43 -137 -85 -70 -78 -69 -68 -66 -637 3
-572 -1 -536 80 -617 115 -115 307 -112 417 7 79 86 76 60 79 618 l3 498 -27
60 c-45 100 -133 158 -248 165 -34 2 -79 -2 -101 -9z m134 -161 c30 -16 54
-46 66 -86 l8 -25 -19 23 c-14 17 -33 24 -75 29 -87 9 -89 4 -89 -249 0 -201
-1 -208 -20 -208 -21 0 -21 -3 -22 158 0 23 -4 42 -8 42 -3 0 -5 36 -2 80 2
43 1 87 -3 97 -4 10 -7 29 -5 43 8 86 94 134 169 96z"/>
<path d="M5760 3833 c-52 -27 -80 -75 -80 -138 0 -96 69 -160 163 -152 54 5
91 27 125 78 42 61 20 150 -50 202 -37 28 -114 33 -158 10z"/>
<path d="M2347 3794 c-46 -14 -47 -23 -47 -689 l0 -627 29 -29 30 -29 363 1
c264 1 380 5 427 15 145 31 257 111 309 222 23 49 27 70 27 152 0 84 -3 101
-27 146 -32 61 -85 109 -150 138 l-49 22 45 34 c90 66 120 139 115 271 -3 67
-10 96 -32 141 -51 104 -143 177 -272 216 -39 12 -125 16 -400 18 -192 1 -358
0 -368 -2z m647 -325 c58 -16 86 -52 86 -110 0 -36 -6 -55 -24 -76 l-24 -28
-191 -3 -191 -3 0 115 0 116 153 0 c83 0 169 -5 191 -11z m99 -522 c43 -28 61
-73 48 -119 -21 -68 -37 -73 -278 -76 l-213 -3 0 111 0 112 208 -4 c178 -3
212 -6 235 -21z"/>
<path d="M4863 3509 c-157 -18 -313 -105 -315 -176 -1 -41 56 -159 86 -178 24
-16 65 -8 111 21 67 42 220 57 278 28 61 -31 107 -88 107 -132 0 -18 -3 -18
-52 -5 -29 8 -98 15 -153 15 -171 1 -298 -45 -401 -147 -48 -48 -64 -72 -78
-119 -36 -115 -1 -233 94 -319 60 -54 119 -76 221 -84 97 -7 159 7 271 63 96
48 108 51 108 29 0 -8 13 -29 29 -47 29 -33 31 -33 131 -36 136 -5 166 1 186
39 13 27 15 74 12 347 -4 297 -6 321 -26 376 -89 240 -314 360 -609 325z m186
-669 c42 -21 71 -54 71 -81 0 -37 -129 -89 -223 -89 -54 0 -62 3 -93 34 -38
38 -41 54 -19 96 36 69 169 89 264 40z"/>
<path d="M4180 3487 c-51 -14 -108 -47 -157 -90 l-33 -29 -6 31 c-8 40 -48 79
-89 87 -19 3 -79 4 -134 2 -89 -3 -103 -6 -123 -26 l-23 -23 0 -483 0 -484 24
-26 c24 -25 28 -26 152 -26 121 0 129 1 156 24 l28 24 5 289 c4 180 10 298 17
314 46 104 138 141 259 102 50 -15 53 -15 85 4 38 21 99 127 99 170 0 103
-135 175 -260 140z"/>
<path d="M6337 3489 c-55 -13 -116 -46 -174 -96 l-52 -44 -11 40 c-6 23 -21
53 -35 68 l-23 28 -163 -1 -162 -1 -24 -27 -23 -27 0 -475 0 -476 29 -29 29
-29 166 0 c160 0 166 1 193 24 l28 24 5 279 c6 307 9 325 73 391 46 48 84 65
147 66 70 1 125 -27 165 -83 l30 -43 5 -301 c3 -166 9 -309 13 -318 15 -30 56
-39 183 -39 119 0 126 1 149 25 l25 24 0 323 c0 317 -1 324 -25 393 -54 153
-169 261 -320 301 -56 15 -170 17 -228 3z"/>
<path d="M6967 3477 c-27 -10 -37 -25 -37 -57 0 -14 92 -209 204 -435 l203
-410 -25 -50 c-45 -92 -66 -112 -140 -134 -48 -15 -77 -31 -102 -56 -30 -31
-35 -43 -38 -98 -3 -53 0 -67 20 -97 65 -96 185 -114 313 -48 76 39 159 129
228 246 91 156 497 1037 497 1079 0 56 -27 68 -165 71 -116 3 -123 2 -148 -20
-24 -20 -160 -321 -229 -506 -12 -31 -24 -50 -29 -45 -5 5 -60 127 -123 272
-63 145 -120 269 -126 275 -13 13 -272 24 -303 13z"/>
<path d="M4156 2126 c-22 -8 -53 -29 -70 -46 -26 -26 -31 -38 -31 -80 0 -71
34 -103 147 -138 67 -20 88 -31 88 -44 0 -20 -29 -38 -63 -38 -13 0 -46 12
-72 26 -48 25 -49 25 -74 6 -33 -24 -38 -48 -14 -74 42 -47 137 -68 213 -48
62 17 120 76 120 122 0 72 -55 118 -175 148 -22 5 -49 16 -60 25 -20 15 -20
15 5 36 20 17 32 20 65 14 22 -3 51 -13 64 -22 24 -15 26 -15 53 16 16 18 27
38 25 44 -7 21 -85 58 -134 63 -29 2 -64 -2 -87 -10z"/>
<path d="M5114 2131 c-106 -27 -188 -149 -169 -250 22 -119 121 -197 241 -189
117 7 196 88 202 207 3 60 0 71 -30 121 -54 89 -154 134 -244 111z m113 -116
c78 -52 74 -168 -8 -211 -108 -55 -215 74 -146 177 40 59 96 72 154 34z"/>
<path d="M4500 2110 c-44 -44 -10 -80 73 -80 l57 0 0 -158 c0 -169 3 -182 50
-182 47 0 50 13 50 182 l0 157 62 3 c56 3 64 6 77 30 14 24 14 28 -3 47 -18
20 -30 21 -183 21 -150 0 -165 -2 -183 -20z"/>
<path d="M5533 2119 c-18 -18 -18 -400 -1 -417 7 -7 24 -12 38 -12 38 0 50 18
50 77 l0 53 38 0 c34 -1 40 -5 77 -63 36 -56 44 -62 77 -65 29 -3 39 1 48 18
10 19 7 30 -19 72 -37 58 -37 64 -10 78 46 25 63 127 31 189 -32 64 -58 75
-195 79 -91 3 -125 1 -134 -9z m218 -99 c22 -12 27 -68 7 -88 -7 -7 -39 -12
-75 -12 l-63 0 0 55 0 55 56 0 c30 0 64 -5 75 -10z"/>
<path d="M6032 2118 c-9 -9 -12 -68 -12 -204 0 -162 3 -195 16 -208 12 -13 41
-16 150 -16 75 0 144 5 155 10 12 7 19 21 19 40 0 41 -23 50 -128 50 l-90 0
-4 35 -4 35 71 0 c79 0 119 15 123 47 5 36 -33 53 -121 53 l-78 0 3 38 3 37
102 3 c97 3 104 4 119 28 16 23 15 26 -1 44 -16 18 -31 20 -165 20 -100 0
-150 -4 -158 -12z"/>
</g>
</svg>
