<svg xmlns="http://www.w3.org/2000/svg" version="1.1" xmlns:xlink="http://www.w3.org/1999/xlink" xmlns:svgjs="http://svgjs.dev/svgjs" width="1000" height="623" viewBox="0 0 1000 623"><g transform="matrix(1,0,0,1,-0.6060606060606233,0.2522267206477409)"><svg viewBox="0 0 396 247" data-background-color="#fefee2" preserveAspectRatio="xMidYMid meet" height="623" width="1000" xmlns="http://www.w3.org/2000/svg" xmlns:xlink="http://www.w3.org/1999/xlink"><g id="tight-bounds" transform="matrix(1,0,0,1,0.2400000000000091,-0.09999999999999432)"><svg viewBox="0 0 395.52 247.2" height="247.2" width="395.52"><g><svg></svg></g><g><svg viewBox="0 0 395.52 247.2" height="247.2" width="395.52"><g mask="url(#e2dcc6c2-2b39-4855-9210-41d22f2226ff)"><g><path xmlns="http://www.w3.org/2000/svg" d="M264.635 0h75.235l-26.272 247.2h-94.74l-18.71-100.313h-3.184l-15.923 100.313h-94.74l-30.651-247.2h78.021l9.952 113.449h3.582l15.127-113.449h75.235l16.719 113.449h2.786z" fill="#7fc37e" fill-rule="nonzero" stroke="none" stroke-width="1" stroke-linecap="butt" stroke-linejoin="miter" stroke-miterlimit="10" stroke-dasharray="" stroke-dashoffset="0" font-family="none" font-weight="none" font-size="none" text-anchor="none" style="mix-blend-mode: normal" data-fill-palette-color="tertiary"></path></g></g><g transform="matrix(1,0,0,1,0,87.50384284837324)"><svg viewBox="0 0 395.52 72.19231430325353" height="72.19231430325353" width="395.52"><g><svg viewBox="0 0 395.52 72.19231430325353" height="72.19231430325353" width="395.52"><g><svg viewBox="0 0 395.52 72.19231430325353" height="72.19231430325353" width="395.52"><g><svg viewBox="0 0 395.52 72.19231430325353" height="72.19231430325353" width="395.52"><g id="textblocktransform"><svg viewBox="0 0 395.52 72.19231430325353" height="72.19231430325353" width="395.52" id="textblock"><g><svg viewBox="0 0 395.52 72.19231430325353" height="72.19231430325353" width="395.52"><g transform="matrix(1,0,0,1,0,0)"><svg width="395.52" viewBox="-2 -35.75 245.3300018310547 45.599998474121094" height="72.19231430325353" data-palette-color="#7fc37e"><path d="M27.25-31.05L36.7-31.05 33.4 0 21.5 0 19.15-12.6 18.75-12.6 16.75 0 4.85 0 1-31.05 10.8-31.05 12.05-16.8 12.5-16.8 14.4-31.05 23.85-31.05 25.95-16.8 26.3-16.8 27.25-31.05ZM50.6-16.5L50.6-16.5Q49.55-16.5 49.15-15.85 48.75-15.2 48.75-13.85L48.75-13.85 52.35-13.85 52.35-14.65Q52.35-16.5 50.6-16.5ZM38.45-12.05Q38.45-18 41.57-21.28 44.7-24.55 50.77-24.55 56.85-24.55 59.37-22.05 61.9-19.55 61.9-14.9L61.9-14.9Q61.9-13.05 61.5-9.3L61.5-9.3 48.95-9.3Q49.15-6.6 52.25-6.6L52.25-6.6Q53.7-6.6 59.85-7.65L59.85-7.65 60.7-0.9Q55.4 0.5 50.8 0.5L50.8 0.5Q44.8 0.5 41.62-2.8 38.45-6.1 38.45-12.05ZM91.59-16.2L91.59-16.2Q91.59 0 76.8 0L76.8 0 64.75 0 64.75-31.05 77.05-31.05Q85-31.05 88.3-27.23 91.59-23.4 91.59-16.2ZM76.65-7.8Q79.2-7.8 79.95-9.55 80.7-11.3 80.7-15.38 80.7-19.45 79.87-21.18 79.05-22.9 76.45-22.9L76.45-22.9 75.4-22.9 75.4-7.8 76.65-7.8ZM105.59-16.5L105.59-16.5Q104.54-16.5 104.14-15.85 103.74-15.2 103.74-13.85L103.74-13.85 107.34-13.85 107.34-14.65Q107.34-16.5 105.59-16.5ZM93.44-12.05Q93.44-18 96.57-21.28 99.69-24.55 105.77-24.55 111.84-24.55 114.37-22.05 116.89-19.55 116.89-14.9L116.89-14.9Q116.89-13.05 116.49-9.3L116.49-9.3 103.94-9.3Q104.14-6.6 107.24-6.6L107.24-6.6Q108.69-6.6 114.84-7.65L114.84-7.65 115.69-0.9Q110.39 0.5 105.79 0.5L105.79 0.5Q99.79 0.5 96.62-2.8 93.44-6.1 93.44-12.05ZM119.34-6.2L119.34-6.2 119.34-32.05 129.59-32.05 129.59-8.5Q129.59-7.15 131.44-7.15L131.44-7.15 130.69 0.5 126.59 0.5Q119.34 0.5 119.34-6.2ZM144.29-23.45L144.29 0 133.89 0 133.89-23.45 144.29-23.45ZM133.69-28.5L133.69-28.5Q133.69-32.75 139.04-32.75 144.39-32.75 144.39-28.5L144.39-28.5Q144.39-26.3 143.06-25.35 141.74-24.4 139.04-24.4 136.34-24.4 135.01-25.33 133.69-26.25 133.69-28.5ZM160.84-23.95L171.04-23.95 165.29 0 151.24 0 145.44-23.95 156.29-23.95 158.29-11.15 158.64-11.15 160.84-23.95ZM183.73-16.5L183.73-16.5Q182.68-16.5 182.28-15.85 181.88-15.2 181.88-13.85L181.88-13.85 185.48-13.85 185.48-14.65Q185.48-16.5 183.73-16.5ZM171.58-12.05Q171.58-18 174.71-21.28 177.83-24.55 183.91-24.55 189.98-24.55 192.51-22.05 195.03-19.55 195.03-14.9L195.03-14.9Q195.03-13.05 194.63-9.3L194.63-9.3 182.08-9.3Q182.28-6.6 185.38-6.6L185.38-6.6Q186.83-6.6 192.98-7.65L192.98-7.65 193.83-0.9Q188.53 0.5 183.93 0.5L183.93 0.5Q177.93 0.5 174.76-2.8 171.58-6.1 171.58-12.05ZM207.78-13.4L207.78-13.4 207.78 0 197.48 0 197.48-23.95 206.38-23.95 206.68-22.35 206.88-22.35Q208.08-23.45 209.63-23.88 211.18-24.3 214.18-24.3L214.18-24.3 213.88-16 210.48-16Q208.98-16 208.38-15.45 207.78-14.9 207.78-13.4ZM227.48-11L227.68-11Q229.98-23.65 230.03-23.95L230.03-23.95 240.33-23.95 233.38 0.4Q232.33 4.1 230.15 5.48 227.98 6.85 223.03 6.85L223.03 6.85 217.03 6.85 215.88-0.3 219.88-0.3Q221.18-0.3 221.18-1.15L221.18-1.15Q221.18-1.7 220.93-2.55L220.93-2.55 214.38-23.95 225.38-23.95 227.48-11Z" opacity="1" transform="matrix(1,0,0,1,0,0)" fill="#7fc37e" class="undefined-text-0" data-fill-palette-color="primary" id="text-0"></path></svg></g></svg></g></svg></g></svg></g></svg></g></svg></g></svg></g></svg></g><defs><mask id="e2dcc6c2-2b39-4855-9210-41d22f2226ff"><rect width="395.52" height="247.2" fill="white"></rect><g transform="matrix(1,0,0,1,0,87.50384284837324)" id="clone"><svg viewBox="0 0 395.52 72.19231430325353" height="72.19231430325353" width="395.52"><g><svg viewBox="0 0 395.52 72.19231430325353" height="72.19231430325353" width="395.52"><g><svg viewBox="0 0 395.52 72.19231430325353" height="72.19231430325353" width="395.52"><g><svg viewBox="0 0 395.52 72.19231430325353" height="72.19231430325353" width="395.52"><g id="SvgjsG1069"><svg viewBox="0 0 395.52 72.19231430325353" height="72.19231430325353" width="395.52" id="SvgjsSvg1068"><g><svg viewBox="0 0 395.52 72.19231430325353" height="72.19231430325353" width="395.52"><g transform="matrix(1,0,0,1,0,0)"><svg width="395.52" viewBox="-2 -35.75 245.3300018310547 45.599998474121094" height="72.19231430325353" data-palette-color="#7fc37e"><path d="M27.25-31.05L36.7-31.05 33.4 0 21.5 0 19.15-12.6 18.75-12.6 16.75 0 4.85 0 1-31.05 10.8-31.05 12.05-16.8 12.5-16.8 14.4-31.05 23.85-31.05 25.95-16.8 26.3-16.8 27.25-31.05ZM50.6-16.5L50.6-16.5Q49.55-16.5 49.15-15.85 48.75-15.2 48.75-13.85L48.75-13.85 52.35-13.85 52.35-14.65Q52.35-16.5 50.6-16.5ZM38.45-12.05Q38.45-18 41.57-21.28 44.7-24.55 50.77-24.55 56.85-24.55 59.37-22.05 61.9-19.55 61.9-14.9L61.9-14.9Q61.9-13.05 61.5-9.3L61.5-9.3 48.95-9.3Q49.15-6.6 52.25-6.6L52.25-6.6Q53.7-6.6 59.85-7.65L59.85-7.65 60.7-0.9Q55.4 0.5 50.8 0.5L50.8 0.5Q44.8 0.5 41.62-2.8 38.45-6.1 38.45-12.05ZM91.59-16.2L91.59-16.2Q91.59 0 76.8 0L76.8 0 64.75 0 64.75-31.05 77.05-31.05Q85-31.05 88.3-27.23 91.59-23.4 91.59-16.2ZM76.65-7.8Q79.2-7.8 79.95-9.55 80.7-11.3 80.7-15.38 80.7-19.45 79.87-21.18 79.05-22.9 76.45-22.9L76.45-22.9 75.4-22.9 75.4-7.8 76.65-7.8ZM105.59-16.5L105.59-16.5Q104.54-16.5 104.14-15.85 103.74-15.2 103.74-13.85L103.74-13.85 107.34-13.85 107.34-14.65Q107.34-16.5 105.59-16.5ZM93.44-12.05Q93.44-18 96.57-21.28 99.69-24.55 105.77-24.55 111.84-24.55 114.37-22.05 116.89-19.55 116.89-14.9L116.89-14.9Q116.89-13.05 116.49-9.3L116.49-9.3 103.94-9.3Q104.14-6.6 107.24-6.6L107.24-6.6Q108.69-6.6 114.84-7.65L114.84-7.65 115.69-0.9Q110.39 0.5 105.79 0.5L105.79 0.5Q99.79 0.5 96.62-2.8 93.44-6.1 93.44-12.05ZM119.34-6.2L119.34-6.2 119.34-32.05 129.59-32.05 129.59-8.5Q129.59-7.15 131.44-7.15L131.44-7.15 130.69 0.5 126.59 0.5Q119.34 0.5 119.34-6.2ZM144.29-23.45L144.29 0 133.89 0 133.89-23.45 144.29-23.45ZM133.69-28.5L133.69-28.5Q133.69-32.75 139.04-32.75 144.39-32.75 144.39-28.5L144.39-28.5Q144.39-26.3 143.06-25.35 141.74-24.4 139.04-24.4 136.34-24.4 135.01-25.33 133.69-26.25 133.69-28.5ZM160.84-23.95L171.04-23.95 165.29 0 151.24 0 145.44-23.95 156.29-23.95 158.29-11.15 158.64-11.15 160.84-23.95ZM183.73-16.5L183.73-16.5Q182.68-16.5 182.28-15.85 181.88-15.2 181.88-13.85L181.88-13.85 185.48-13.85 185.48-14.65Q185.48-16.5 183.73-16.5ZM171.58-12.05Q171.58-18 174.71-21.28 177.83-24.55 183.91-24.55 189.98-24.55 192.51-22.05 195.03-19.55 195.03-14.9L195.03-14.9Q195.03-13.05 194.63-9.3L194.63-9.3 182.08-9.3Q182.28-6.6 185.38-6.6L185.38-6.6Q186.83-6.6 192.98-7.65L192.98-7.65 193.83-0.9Q188.53 0.5 183.93 0.5L183.93 0.5Q177.93 0.5 174.76-2.8 171.58-6.1 171.58-12.05ZM207.78-13.4L207.78-13.4 207.78 0 197.48 0 197.48-23.95 206.38-23.95 206.68-22.35 206.88-22.35Q208.08-23.45 209.63-23.88 211.18-24.3 214.18-24.3L214.18-24.3 213.88-16 210.48-16Q208.98-16 208.38-15.45 207.78-14.9 207.78-13.4ZM227.48-11L227.68-11Q229.98-23.65 230.03-23.95L230.03-23.95 240.33-23.95 233.38 0.4Q232.33 4.1 230.15 5.48 227.98 6.85 223.03 6.85L223.03 6.85 217.03 6.85 215.88-0.3 219.88-0.3Q221.18-0.3 221.18-1.15L221.18-1.15Q221.18-1.7 220.93-2.55L220.93-2.55 214.38-23.95 225.38-23.95 227.48-11Z" opacity="1" transform="matrix(1,0,0,1,0,0)" fill="#7fc37e" class="undefined-text-0" data-fill-palette-color="primary" id="SvgjsPath1067" stroke-width="5" stroke="black" stroke-linejoin="round"></path></svg></g></svg></g></svg></g></svg></g></svg></g></svg></g></svg></g></mask></defs></svg><rect width="395.52" height="247.2" fill="none" stroke="none" visibility="hidden"></rect></g></svg></g></svg>